<svg width="160" height="29" viewBox="0 0 160 29" fill="none" xmlns="http://www.w3.org/2000/svg">
<path d="M51.44 22.3347C50.272 22.3347 49.216 22.1347 48.272 21.7347C47.344 21.3347 46.608 20.7587 46.064 20.0067C45.52 19.2547 45.24 18.3667 45.224 17.3427H48.824C48.872 18.0307 49.112 18.5747 49.544 18.9747C49.992 19.3747 50.6 19.5747 51.368 19.5747C52.152 19.5747 52.768 19.3907 53.216 19.0227C53.664 18.6387 53.888 18.1427 53.888 17.5347C53.888 17.0387 53.736 16.6307 53.432 16.3107C53.128 15.9907 52.744 15.7427 52.28 15.5667C51.832 15.3747 51.208 15.1667 50.408 14.9427C49.32 14.6227 48.432 14.3107 47.744 14.0067C47.072 13.6867 46.488 13.2147 45.992 12.5907C45.512 11.9507 45.272 11.1027 45.272 10.0467C45.272 9.05467 45.52 8.19067 46.016 7.45467C46.512 6.71867 47.208 6.15867 48.104 5.77467C49 5.37467 50.024 5.17467 51.176 5.17467C52.904 5.17467 54.304 5.59867 55.376 6.44667C56.464 7.27867 57.064 8.44667 57.176 9.95067H53.48C53.448 9.37467 53.2 8.90267 52.736 8.53467C52.288 8.15067 51.688 7.95867 50.936 7.95867C50.28 7.95867 49.752 8.12667 49.352 8.46267C48.968 8.79867 48.776 9.28667 48.776 9.92667C48.776 10.3747 48.92 10.7507 49.208 11.0547C49.512 11.3427 49.88 11.5827 50.312 11.7747C50.76 11.9507 51.384 12.1587 52.184 12.3987C53.272 12.7187 54.16 13.0387 54.848 13.3587C55.536 13.6787 56.128 14.1587 56.624 14.7987C57.12 15.4387 57.368 16.2787 57.368 17.3187C57.368 18.2147 57.136 19.0467 56.672 19.8147C56.208 20.5827 55.528 21.1987 54.632 21.6627C53.736 22.1107 52.672 22.3347 51.44 22.3347Z" fill="white"/>
<path d="M59.417 15.5187C59.417 14.1427 59.697 12.9427 60.257 11.9187C60.817 10.8787 61.593 10.0787 62.585 9.51867C63.577 8.94267 64.713 8.65467 65.993 8.65467C67.641 8.65467 69.001 9.07067 70.073 9.90267C71.161 10.7187 71.889 11.8707 72.257 13.3587H68.633C68.441 12.7827 68.113 12.3347 67.649 12.0147C67.201 11.6787 66.641 11.5107 65.969 11.5107C65.009 11.5107 64.249 11.8627 63.689 12.5667C63.129 13.2547 62.849 14.2387 62.849 15.5187C62.849 16.7827 63.129 17.7667 63.689 18.4707C64.249 19.1587 65.009 19.5027 65.969 19.5027C67.329 19.5027 68.217 18.8947 68.633 17.6787H72.257C71.889 19.1187 71.161 20.2627 70.073 21.1107C68.985 21.9587 67.625 22.3827 65.993 22.3827C64.713 22.3827 63.577 22.1027 62.585 21.5427C61.593 20.9667 60.817 20.1667 60.257 19.1427C59.697 18.1027 59.417 16.8947 59.417 15.5187Z" fill="white"/>
<path d="M73.8545 15.4707C73.8545 14.1267 74.1185 12.9347 74.6465 11.8947C75.1905 10.8547 75.9185 10.0547 76.8305 9.49467C77.7585 8.93467 78.7905 8.65467 79.9265 8.65467C80.9185 8.65467 81.7825 8.85467 82.5185 9.25467C83.2705 9.65467 83.8705 10.1587 84.3185 10.7667V8.87067H87.7025V22.1667H84.3185V20.2227C83.8865 20.8467 83.2865 21.3667 82.5185 21.7827C81.7665 22.1827 80.8945 22.3827 79.9025 22.3827C78.7825 22.3827 77.7585 22.0947 76.8305 21.5187C75.9185 20.9427 75.1905 20.1347 74.6465 19.0947C74.1185 18.0387 73.8545 16.8307 73.8545 15.4707ZM84.3185 15.5187C84.3185 14.7027 84.1585 14.0067 83.8385 13.4307C83.5185 12.8387 83.0865 12.3907 82.5425 12.0867C81.9985 11.7667 81.4145 11.6067 80.7905 11.6067C80.1665 11.6067 79.5905 11.7587 79.0625 12.0627C78.5345 12.3667 78.1025 12.8147 77.7665 13.4067C77.4465 13.9827 77.2865 14.6707 77.2865 15.4707C77.2865 16.2707 77.4465 16.9747 77.7665 17.5827C78.1025 18.1747 78.5345 18.6307 79.0625 18.9507C79.6065 19.2707 80.1825 19.4307 80.7905 19.4307C81.4145 19.4307 81.9985 19.2787 82.5425 18.9747C83.0865 18.6547 83.5185 18.2067 83.8385 17.6307C84.1585 17.0387 84.3185 16.3347 84.3185 15.5187Z" fill="white"/>
<path d="M94.3441 4.40667V22.1667H90.9841V4.40667H94.3441Z" fill="white"/>
<path d="M96.7998 15.4707C96.7998 14.1267 97.0638 12.9347 97.5918 11.8947C98.1358 10.8547 98.8638 10.0547 99.7758 9.49467C100.704 8.93467 101.736 8.65467 102.872 8.65467C103.864 8.65467 104.728 8.85467 105.464 9.25467C106.216 9.65467 106.816 10.1587 107.264 10.7667V8.87067H110.648V22.1667H107.264V20.2227C106.832 20.8467 106.232 21.3667 105.464 21.7827C104.712 22.1827 103.84 22.3827 102.848 22.3827C101.728 22.3827 100.704 22.0947 99.7758 21.5187C98.8638 20.9427 98.1358 20.1347 97.5918 19.0947C97.0638 18.0387 96.7998 16.8307 96.7998 15.4707ZM107.264 15.5187C107.264 14.7027 107.104 14.0067 106.784 13.4307C106.464 12.8387 106.032 12.3907 105.488 12.0867C104.944 11.7667 104.36 11.6067 103.736 11.6067C103.112 11.6067 102.536 11.7587 102.008 12.0627C101.48 12.3667 101.048 12.8147 100.712 13.4067C100.392 13.9827 100.232 14.6707 100.232 15.4707C100.232 16.2707 100.392 16.9747 100.712 17.5827C101.048 18.1747 101.48 18.6307 102.008 18.9507C102.552 19.2707 103.128 19.4307 103.736 19.4307C104.36 19.4307 104.944 19.2787 105.488 18.9747C106.032 18.6547 106.464 18.2067 106.784 17.6307C107.104 17.0387 107.264 16.3347 107.264 15.5187Z" fill="white"/>
<path d="M117.289 10.8147C117.721 10.1747 118.313 9.65467 119.065 9.25467C119.833 8.85467 120.705 8.65467 121.681 8.65467C122.817 8.65467 123.841 8.93467 124.753 9.49467C125.681 10.0547 126.409 10.8547 126.937 11.8947C127.481 12.9187 127.753 14.1107 127.753 15.4707C127.753 16.8307 127.481 18.0387 126.937 19.0947C126.409 20.1347 125.681 20.9427 124.753 21.5187C123.841 22.0947 122.817 22.3827 121.681 22.3827C120.689 22.3827 119.817 22.1907 119.065 21.8067C118.329 21.4067 117.737 20.8947 117.289 20.2707V22.1667H113.929V4.40667H117.289V10.8147ZM124.321 15.4707C124.321 14.6707 124.153 13.9827 123.817 13.4067C123.497 12.8147 123.065 12.3667 122.521 12.0627C121.993 11.7587 121.417 11.6067 120.793 11.6067C120.185 11.6067 119.609 11.7667 119.065 12.0867C118.537 12.3907 118.105 12.8387 117.769 13.4307C117.449 14.0227 117.289 14.7187 117.289 15.5187C117.289 16.3187 117.449 17.0147 117.769 17.6067C118.105 18.1987 118.537 18.6547 119.065 18.9747C119.609 19.2787 120.185 19.4307 120.793 19.4307C121.417 19.4307 121.993 19.2707 122.521 18.9507C123.065 18.6307 123.497 18.1747 123.817 17.5827C124.153 16.9907 124.321 16.2867 124.321 15.4707Z" fill="white"/>
<path d="M129.331 15.4707C129.331 14.1267 129.595 12.9347 130.123 11.8947C130.667 10.8547 131.395 10.0547 132.307 9.49467C133.235 8.93467 134.267 8.65467 135.403 8.65467C136.395 8.65467 137.259 8.85467 137.995 9.25467C138.747 9.65467 139.347 10.1587 139.795 10.7667V8.87067H143.179V22.1667H139.795V20.2227C139.363 20.8467 138.763 21.3667 137.995 21.7827C137.243 22.1827 136.371 22.3827 135.379 22.3827C134.259 22.3827 133.235 22.0947 132.307 21.5187C131.395 20.9427 130.667 20.1347 130.123 19.0947C129.595 18.0387 129.331 16.8307 129.331 15.4707ZM139.795 15.5187C139.795 14.7027 139.635 14.0067 139.315 13.4307C138.995 12.8387 138.563 12.3907 138.019 12.0867C137.475 11.7667 136.891 11.6067 136.267 11.6067C135.643 11.6067 135.067 11.7587 134.539 12.0627C134.011 12.3667 133.579 12.8147 133.243 13.4067C132.923 13.9827 132.763 14.6707 132.763 15.4707C132.763 16.2707 132.923 16.9747 133.243 17.5827C133.579 18.1747 134.011 18.6307 134.539 18.9507C135.083 19.2707 135.659 19.4307 136.267 19.4307C136.891 19.4307 137.475 19.2787 138.019 18.9747C138.563 18.6547 138.995 18.2067 139.315 17.6307C139.635 17.0387 139.795 16.3347 139.795 15.5187Z" fill="white"/>
<path d="M159.181 8.87067L150.949 28.4547H147.373L150.253 21.8307L144.925 8.87067H148.693L152.125 18.1587L155.605 8.87067H159.181Z" fill="white"/>
<path d="M32 10.1602L22.4 0.56015L16 6.96015L9.6 0.560158L0 10.1602L16 26.1602L32 10.1602Z" fill="white"/>
</svg>
